<?xml version="1.0" standalone="no"?>
<!DOCTYPE svg PUBLIC "-//W3C//DTD SVG 20010904//EN"
 "http://www.w3.org/TR/2001/REC-SVG-20010904/DTD/svg10.dtd">
<svg version="1.0" xmlns="http://www.w3.org/2000/svg"
 width="2000.000000pt" height="2000.000000pt" viewBox="0 0 2000.000000 2000.000000"
 preserveAspectRatio="xMidYMid meet">
<metadata>
Created by potrace 1.11, written by Peter Selinger 2001-2013
</metadata>
<g transform="translate(0.000000,2000.000000) scale(0.100000,-0.100000)"
fill="#000000" stroke="none">
<path d="M9228 18955 c-2 -1 -52 -5 -113 -8 -248 -13 -477 -85 -670 -212 -90
-59 -243 -217 -312 -321 -132 -200 -228 -452 -257 -679 -23 -173 -23 -540 -1
-730 2 -16 6 -70 10 -120 4 -49 9 -98 10 -107 2 -9 7 -48 10 -85 4 -37 9 -79
11 -93 2 -14 7 -43 10 -65 12 -93 26 -192 30 -215 2 -14 7 -45 10 -70 3 -25 8
-54 10 -65 3 -11 7 -36 10 -55 5 -33 8 -55 19 -110 5 -24 8 -41 22 -120 3 -19
7 -44 10 -55 2 -11 8 -42 14 -70 5 -27 12 -66 15 -85 3 -19 7 -43 10 -53 5
-15 47 -211 60 -277 66 -332 237 -928 305 -1062 22 -44 22 -44 -76 -73 -33
-10 -64 -21 -70 -25 -5 -4 -46 -19 -90 -35 -44 -16 -91 -35 -105 -42 -13 -7
-27 -9 -31 -5 -3 4 -19 41 -34 82 -33 87 -112 260 -119 260 -2 0 0 -15 4 -32
10 -38 40 -236 40 -266 0 -21 -8 -26 -412 -244 -70 -37 -131 -68 -137 -68 -5
0 -286 201 -623 447 -337 245 -620 448 -628 450 -10 3 -114 -96 -285 -270
-149 -151 -538 -546 -865 -877 -327 -331 -594 -608 -594 -615 1 -7 42 -73 91
-146 49 -74 232 -346 406 -606 174 -259 317 -477 317 -482 0 -6 -51 -114 -114
-239 -174 -347 -271 -582 -338 -811 l-31 -108 -149 -18 c-81 -9 -160 -19 -175
-21 -16 -2 -125 -15 -243 -29 -118 -14 -231 -27 -250 -30 -19 -2 -152 -18
-295 -35 -143 -17 -270 -33 -283 -35 l-22 -5 2 -1217 3 -1217 545 -87 c300
-48 636 -102 746 -120 l201 -32 13 -71 c30 -169 123 -442 213 -621 22 -44 88
-168 148 -277 60 -108 109 -201 109 -207 0 -5 -111 -178 -247 -383 -496 -750
-554 -840 -559 -851 -2 -7 390 -406 871 -887 l874 -874 612 409 c336 226 617
411 625 413 8 2 96 -34 197 -81 100 -46 360 -155 578 -242 l396 -157 124 -752
124 -751 1260 0 1259 0 125 747 124 747 126 41 c317 106 771 302 957 414 32
20 64 36 71 36 6 0 63 -37 126 -83 233 -167 794 -571 842 -607 129 -96 277
-201 288 -206 19 -7 1761 1741 1751 1757 -4 7 -207 285 -451 617 -244 331
-443 607 -443 613 0 6 69 148 154 317 143 287 159 324 240 568 48 144 95 268
104 277 22 19 73 35 137 42 103 12 241 38 660 124 l430 87 0 1219 0 1219 -730
123 c-401 68 -737 127 -745 131 -25 14 -58 91 -90 212 -22 85 -58 177 -139
350 -60 129 -145 314 -190 410 -44 96 -81 180 -81 186 0 7 196 281 436 610
241 330 439 607 442 617 2 9 -8 36 -23 60 -16 23 -227 238 -469 478 -243 241
-439 439 -436 442 3 3 30 8 60 11 148 17 523 86 665 122 348 89 657 191 920
304 54 23 360 175 385 190 8 5 58 35 110 66 136 80 354 232 411 286 8 7 36 31
64 53 75 60 272 260 340 345 33 41 63 77 66 80 9 7 155 225 172 257 86 160
137 270 155 333 31 105 43 262 28 360 -4 25 -10 59 -12 75 -17 102 -77 274
-137 390 -40 78 -165 267 -214 325 -63 74 -204 214 -266 263 -168 135 -377
247 -547 292 -120 33 -178 39 -335 39 -142 -1 -225 -6 -325 -23 -450 -75 -758
-274 -933 -602 -39 -72 -79 -174 -92 -229 -34 -156 -38 -188 -40 -345 -3 -206
12 -318 54 -406 49 -103 157 -206 282 -270 l58 -29 41 59 c125 185 324 336
530 402 135 44 204 54 345 53 254 -2 441 -63 595 -191 34 -28 104 -132 129
-190 80 -192 45 -478 -82 -678 -48 -75 -54 -83 -157 -185 -135 -135 -322 -255
-542 -349 -199 -84 -551 -206 -651 -225 -12 -2 -42 -9 -67 -16 -25 -6 -58 -13
-75 -16 -16 -3 -55 -12 -85 -19 -30 -7 -71 -16 -90 -19 -19 -3 -73 -12 -120
-20 -47 -8 -105 -18 -130 -21 -25 -3 -56 -8 -70 -10 -184 -27 -302 -35 -609
-39 l-244 -3 -36 32 c-20 18 -103 101 -186 184 -82 83 -156 151 -165 151 -24
0 -131 -68 -196 -125 -85 -74 -156 -125 -173 -125 -9 0 -44 7 -78 15 -34 8
-77 17 -95 20 -18 4 -71 15 -118 25 -47 10 -112 23 -145 29 -33 5 -114 19
-180 31 -125 22 -131 22 -260 40 -112 15 -146 20 -175 25 -14 2 -56 7 -95 10
-38 3 -90 8 -115 11 -46 6 -68 7 -225 18 -187 13 -264 16 -399 17 l-139 0 44
27 c24 14 49 30 54 34 6 4 60 40 120 80 162 106 354 251 495 375 301 264 478
503 554 749 15 49 30 96 33 104 3 8 13 60 23 115 29 160 21 310 -24 435 -76
208 -298 335 -570 325 -50 -2 -100 -5 -111 -8 -11 -3 -33 -8 -50 -12 -89 -22
-215 -92 -290 -162 -76 -70 -159 -181 -210 -282 -23 -47 -24 -53 -8 -47 50 20
167 48 244 60 205 31 363 -12 427 -116 61 -100 84 -318 48 -465 -21 -83 -75
-195 -136 -280 -133 -184 -495 -475 -645 -518 -148 -44 -184 -47 -510 -51
-176 -2 -358 -5 -405 -8 -277 -17 -612 -138 -875 -317 -84 -57 -97 -67 -191
-147 l-74 -64 -36 77 c-61 132 -144 407 -168 555 -3 19 -7 44 -10 55 -3 18
-13 88 -22 155 -24 185 -23 562 2 755 2 22 7 54 9 70 27 207 106 523 178 710
55 142 70 178 102 250 88 194 208 413 324 590 58 89 216 312 231 325 3 3 32
39 65 80 169 211 415 469 620 649 41 35 46 42 25 38 -128 -28 -630 -29 -765
-2 -11 3 -36 7 -55 9 -19 3 -78 12 -130 21 -52 8 -117 18 -145 21 -27 3 -63 7
-80 10 -16 2 -77 7 -135 10 -58 3 -120 7 -137 8 -18 2 -34 2 -35 1z m3317
-4989 c44 -2 104 -5 134 -5 l54 -1 -69 -51 c-83 -60 -99 -60 -201 0 -113 66
-115 68 -52 65 30 -2 90 -5 134 -8z m-2375 -2321 c299 -25 499 -64 736 -146
757 -259 1360 -978 1534 -1826 50 -239 65 -555 40 -788 -38 -349 -161 -728
-330 -1025 -169 -294 -421 -558 -724 -755 -273 -178 -687 -336 -1066 -405
-423 -78 -859 -24 -1308 161 -645 267 -1063 673 -1307 1267 -137 336 -232 745
-240 1042 -14 554 183 1121 552 1583 86 108 277 297 383 379 189 146 436 287
635 363 120 45 142 50 345 80 180 26 271 44 350 69 44 14 229 15 400 1z"/>
</g>
</svg>
